<svg xmlns="http://www.w3.org/2000/svg" version="1.1" xmlns:xlink="http://www.w3.org/1999/xlink" width="1000" height="1000"><style>
    #light-icon {
      display: inline;
    }
    #dark-icon {
      display: none;
    }

    @media (prefers-color-scheme: dark) {
      #light-icon {
        display: none;
      }
      #dark-icon {
        display: inline;
      }
    }
  </style><g id="light-icon"><svg xmlns="http://www.w3.org/2000/svg" version="1.1" xmlns:xlink="http://www.w3.org/1999/xlink" width="1000" height="1000"><g><g transform="matrix(1.953125,0,0,1.953125,0,0)"><svg xmlns="http://www.w3.org/2000/svg" version="1.1" xmlns:xlink="http://www.w3.org/1999/xlink" width="512" height="512"><svg id="a" xmlns="http://www.w3.org/2000/svg" viewBox="0 0 512 512"><path d="M446.14,299.22c-9.89-45.34-49.37-79.21-95.83-81.54-14.65-.74-28.83,1.79-41.83,6.93-.83.17-1.68.5-2.54,1.02-.06.04-.12.07-.18.1-3.99,1.71-7.85,3.67-11.57,5.86-28.7,12.02-62.26,8.6-87.57-10.81-29.01-22.25-40.88-61.2-29.9-95.9,6.26-19.77,19.58-36.39,37.01-47.46h0c33.38-20.04,77.91-10.65,98.69,22.94,20.7,33.45,10.03,77.66-22.94,98.69,0,0,0,0,0,0-26.16,15.59-60.84,8.44-77.18-17.88-16.25-26.18-7.83-60.66,17.88-77.18,0,0,0,0,0,0,18.93-11.14,43.8-6.25,55.67,12.81,11.78,18.93,5.67,43.64-12.81,55.67,0,0,0,0,0,0-11.69,6.72-26.75,4.01-34.15-7.75-7.32-11.62-3.48-26.68,7.75-34.15,0,0,0,0,0,0,10.23-5.49,19.75,8.39,9.95,15.33-8.14,5.77-.34,19.33,7.89,13.49,10.95-7.76,15.63-21.95,8.29-34.02-6.93-11.41-20.9-14.35-32.45-9.05-.54.18-1.07.42-1.57.76-18.21,12.11-25.22,36.37-13.36,55.54,11.61,18.75,35.71,24.17,54.69,13.82.29-.13.57-.28.84-.46,25.48-16.58,34.71-50.62,18.42-77.05-16.06-26.05-50.13-33.72-76.31-18.83-.25.12-.5.25-.73.41-32.7,21.02-44.29,64.95-23.48,98.56,20.71,33.45,64.96,43.45,98.48,23.53.03-.02.05-.03.08-.04,30.75-19.62,46.76-55.74,39.74-91.7-6.91-35.4-36.7-63.41-72.23-68.78-20.56-3.1-41.22,1.15-59.04,11.85h0c-36.21,22.99-55.15,65.65-46.89,107.92,7.1,36.38,34.52,66.07,69.11,77.45.19.86.56,1.75,1.15,2.64,9.98,15.04,15.04,32.33,15.17,49.52-.05.26-.12.52-.17.79-.25,1.31-.19,2.52.1,3.61-.88,20.99-9.17,41.55-24.94,57.38-24.98,25.08-62.17,31.85-94.89,19.3h0c-36.07-14.87-53.87-57.43-39.11-93.55,15.03-36.76,57.17-52.97,93.55-39.11,0,0,0,0,0,0,28.2,11.74,41.91,45.04,30.34,73.26-11.76,28.68-44.44,40.9-72.73,30.53-19.79-9.12-30.67-31.07-22.45-52.2,8.27-21.24,31.74-30.04,52.48-22.82,12.07,5.79,19.12,18.79,13.98,32.01-5.14,13.23-19.31,18.21-32.13,14.05-10.41-5.92-4.69-20.68,7.46-16.71,9.58,3.13,13.69-11.96,4.15-15.07-12.46-4.07-26.22,1.67-31.22,14.03-4.97,12.27.85,26.18,12.7,31.76-.03-.07-.06-.14-.08-.2.62.42,1.28.75,1.95.99,20.41,7.34,43.33-2.59,51.51-22.79,8.14-20.12-1.66-43.44-21.47-52.05.03.07.06.15.09.22-.63-.42-1.29-.76-1.96-1.01-28.34-10.51-60.44,3.49-71.8,31.56-11.32,27.98,2.56,60.63,30.23,72.34-.03-.08-.06-.16-.1-.23.63.42,1.29.77,1.96,1.02,36.63,13.82,78.3-4.77,92.48-41.26,14.32-36.85-5.1-76.92-40.44-92.12-.27-.13-.54-.26-.81-.36-33.69-12.84-73.34-3.48-97.06,23.96-23.76,27.49-28.18,67.31-10.85,99.28,9.94,18.33,26.04,31.67,45.16,39.55,0,0,0,0,0,0,38.38,14.72,83.09,5.06,111.55-24.81,18.35-19.26,27.79-44.39,28.11-69.75,5.55-24.5,20.63-44.98,40.94-57.3,3.97-1.72,7.85-3.68,11.62-5.89,11.57-4.82,24.36-7.22,37.75-6.55,39.78,2,72.4,31.69,80.77,70.07h0c7.37,38.47-17.93,76.39-56.34,84.24-38.81,7.94-75.89-18.42-84.24-56.34,0,0,0,0,0,0-5.66-30.13,14.12-59.64,44.19-65.78,30.46-6.22,59.16,14.6,65.78,44.18,0,0,0,0,0,0,3.96,21.67-10.29,43.08-32.03,47.33-22.14,4.32-42.41-10.64-47.32-32.03,0,0,0,0,0,0-2.27-13.27,6.51-26.39,19.88-28.86,13.77-2.55,25.71,6.8,28.87,19.88,0,0,0,0,0,0,1.7,11.95-15.11,13.8-18.13,2.68-2.63-9.69-17.72-5.58-15.07,4.15,3.53,12.97,16.11,21.69,29.63,18.64,13.19-2.98,19.81-15.03,18.85-27.59.01-.69-.05-1.38-.21-2.04-5.17-21.43-26.28-35.45-48.09-30.79-21.83,4.66-34.04,25.78-30.96,46.97.03.38.08.75.16,1.12,6.87,29.93,36.4,49.1,66.55,42.95,30.24-6.17,47.99-36.22,43.09-65.64-.03-.31-.08-.61-.14-.91-8.55-38.18-46.55-63.09-85.01-55.1-38.58,8.01-61.92,46.31-55.24,84.18.03.28.07.55.13.82,7.74,35.12,36.68,62.92,72.46,68.15,35.97,5.26,72.46-12.69,89.69-44.85,9.85-18.39,12.48-39.12,8.57-59.51,0,0,0,0,0,0ZM255.46,271.18c-1.82-5.98-4.2-11.83-7.12-17.48,6.37.71,12.74.83,19.04.35-4.51,5.28-8.52,11.01-11.93,17.13Z"></path><path d="M475.75,123.74C420.09,31.66,310.27-16.28,204.88,4.94,101.65,25.71,19.02,112.02,3.13,216.17c-2.01,13.21-3.08,26.49-3.13,39.84.46,106.81,68.18,203.97,168.56,240.82,100.57,36.91,217.38,4.97,285.31-77.77,68.16-83.02,77.59-203.15,21.88-295.32ZM209.03,492.01c-97.73-19.67-174.62-99.84-190.5-198.21-2.02-12.5-2.85-25.15-2.91-37.8.43-99.85,63.77-191.94,158.07-226.1,95.32-34.53,203.9-4.69,268.47,73.31,64.27,77.63,72.12,191.08,20.08,277.17-51.87,85.82-154.79,131.44-253.22,111.62Z"></path></svg></svg></g></g></svg></g><g id="dark-icon"><svg xmlns="http://www.w3.org/2000/svg" version="1.1" xmlns:xlink="http://www.w3.org/1999/xlink" width="1000" height="1000"><g><g transform="matrix(1.953125,0,0,1.953125,0,0)"><svg xmlns="http://www.w3.org/2000/svg" version="1.1" xmlns:xlink="http://www.w3.org/1999/xlink" width="512" height="512"><svg id="a" xmlns="http://www.w3.org/2000/svg" viewBox="0 0 512 512"><path d="M446.14,299.22c-9.89-45.34-49.37-79.21-95.83-81.54-14.65-.74-28.83,1.79-41.83,6.93-.83.17-1.68.5-2.54,1.02-.06.04-.12.07-.18.1-3.99,1.71-7.85,3.67-11.57,5.86-28.7,12.02-62.26,8.6-87.57-10.81-29.01-22.25-40.88-61.2-29.9-95.9,6.26-19.77,19.58-36.39,37.01-47.46h0c33.38-20.04,77.91-10.65,98.69,22.94,20.7,33.45,10.03,77.66-22.94,98.69,0,0,0,0,0,0-26.16,15.59-60.84,8.44-77.18-17.88-16.25-26.18-7.83-60.66,17.88-77.18,0,0,0,0,0,0,18.93-11.14,43.8-6.25,55.67,12.81,11.78,18.93,5.67,43.64-12.81,55.67,0,0,0,0,0,0-11.69,6.72-26.75,4.01-34.15-7.75-7.32-11.62-3.48-26.68,7.75-34.15,0,0,0,0,0,0,10.23-5.49,19.75,8.39,9.95,15.33-8.14,5.77-.34,19.33,7.89,13.49,10.95-7.76,15.63-21.95,8.29-34.02-6.93-11.41-20.9-14.35-32.45-9.05-.54.18-1.07.42-1.57.76-18.21,12.11-25.22,36.37-13.36,55.54,11.61,18.75,35.71,24.17,54.69,13.82.29-.13.57-.28.84-.46,25.48-16.58,34.71-50.62,18.42-77.05-16.06-26.05-50.13-33.72-76.31-18.83-.25.12-.5.25-.73.41-32.7,21.02-44.29,64.95-23.48,98.56,20.71,33.45,64.96,43.45,98.48,23.53.03-.02.05-.03.08-.04,30.75-19.62,46.76-55.74,39.74-91.7-6.91-35.4-36.7-63.41-72.23-68.78-20.56-3.1-41.22,1.15-59.04,11.85h0c-36.21,22.99-55.15,65.65-46.89,107.92,7.1,36.38,34.52,66.07,69.11,77.45.19.86.56,1.75,1.15,2.64,9.98,15.04,15.04,32.33,15.17,49.52-.05.26-.12.52-.17.79-.25,1.31-.19,2.52.1,3.61-.88,20.99-9.17,41.55-24.94,57.38-24.98,25.08-62.17,31.85-94.89,19.3h0c-36.07-14.87-53.87-57.43-39.11-93.55,15.03-36.76,57.17-52.97,93.55-39.11,0,0,0,0,0,0,28.2,11.74,41.91,45.04,30.34,73.26-11.76,28.68-44.44,40.9-72.73,30.53-19.79-9.12-30.67-31.07-22.45-52.2,8.27-21.24,31.74-30.04,52.48-22.82,12.07,5.79,19.12,18.79,13.98,32.01-5.14,13.23-19.31,18.21-32.13,14.05-10.41-5.92-4.69-20.68,7.46-16.71,9.58,3.13,13.69-11.96,4.15-15.07-12.46-4.07-26.22,1.67-31.22,14.03-4.97,12.27.85,26.18,12.7,31.76-.03-.07-.06-.14-.08-.2.62.42,1.28.75,1.95.99,20.41,7.34,43.33-2.59,51.51-22.79,8.14-20.12-1.66-43.44-21.47-52.05.03.07.06.15.09.22-.63-.42-1.29-.76-1.96-1.01-28.34-10.51-60.44,3.49-71.8,31.56-11.32,27.98,2.56,60.63,30.23,72.34-.03-.08-.06-.16-.1-.23.63.42,1.29.77,1.96,1.02,36.63,13.82,78.3-4.77,92.48-41.26,14.32-36.85-5.1-76.92-40.44-92.12-.27-.13-.54-.26-.81-.36-33.69-12.84-73.34-3.48-97.06,23.96-23.76,27.49-28.18,67.31-10.85,99.28,9.94,18.33,26.04,31.67,45.16,39.55,0,0,0,0,0,0,38.38,14.72,83.09,5.06,111.55-24.81,18.35-19.26,27.79-44.39,28.11-69.75,5.55-24.5,20.63-44.98,40.94-57.3,3.97-1.72,7.85-3.68,11.62-5.89,11.57-4.82,24.36-7.22,37.75-6.55,39.78,2,72.4,31.69,80.77,70.07h0c7.37,38.47-17.93,76.39-56.34,84.24-38.81,7.94-75.89-18.42-84.24-56.34,0,0,0,0,0,0-5.66-30.13,14.12-59.64,44.19-65.78,30.46-6.22,59.16,14.6,65.78,44.18,0,0,0,0,0,0,3.96,21.67-10.29,43.08-32.03,47.33-22.14,4.32-42.41-10.64-47.32-32.03,0,0,0,0,0,0-2.27-13.27,6.51-26.39,19.88-28.86,13.77-2.55,25.71,6.8,28.87,19.88,0,0,0,0,0,0,1.7,11.95-15.11,13.8-18.13,2.68-2.63-9.69-17.72-5.58-15.07,4.15,3.53,12.97,16.11,21.69,29.63,18.64,13.19-2.98,19.81-15.03,18.85-27.59.01-.69-.05-1.38-.21-2.04-5.17-21.43-26.28-35.45-48.09-30.79-21.83,4.66-34.04,25.78-30.96,46.97.03.38.08.75.16,1.12,6.87,29.93,36.4,49.1,66.55,42.95,30.24-6.17,47.99-36.22,43.09-65.64-.03-.31-.08-.61-.14-.91-8.55-38.18-46.55-63.09-85.01-55.1-38.58,8.01-61.92,46.31-55.24,84.18.03.28.07.55.13.82,7.74,35.12,36.68,62.92,72.46,68.15,35.97,5.26,72.46-12.69,89.69-44.85,9.85-18.39,12.48-39.12,8.57-59.51,0,0,0,0,0,0ZM255.46,271.18c-1.82-5.98-4.2-11.83-7.12-17.48,6.37.71,12.74.83,19.04.35-4.51,5.28-8.52,11.01-11.93,17.13Z" fill="#f2f2f2"></path><path d="M475.75,123.74C420.09,31.66,310.27-16.28,204.88,4.94,101.65,25.71,19.02,112.02,3.13,216.17c-2.01,13.21-3.08,26.49-3.13,39.84.46,106.81,68.18,203.97,168.56,240.82,100.57,36.91,217.38,4.97,285.31-77.77,68.16-83.02,77.59-203.15,21.88-295.32ZM209.03,492.01c-97.73-19.67-174.62-99.84-190.5-198.21-2.02-12.5-2.85-25.15-2.91-37.8.43-99.85,63.77-191.94,158.07-226.1,95.32-34.53,203.9-4.69,268.47,73.31,64.27,77.63,72.12,191.08,20.08,277.17-51.87,85.82-154.79,131.44-253.22,111.62Z" fill="#f2f2f2"></path></svg></svg></g></g></svg></g></svg>