<svg id="nightDay" xmlns="http://www.w3.org/2000/svg" viewBox="0 0 100 100">
  <path d="M67.4,25c0,4.4,3.6,8,8,8s8-3.6,8-8-3.6-8-8-8-8,3.6-8,8ZM91.4,25c0,.6-.4,1-1,1h-4c-.6,0-1-.4-1-1s.4-1,1-1h4c.6,0,1,.4,1,1ZM65.4,25c0,.6-.4,1-1,1h-4c-.6,0-1-.4-1-1s.4-1,1-1h4c.6,0,1,.4,1,1ZM75.4,41c-.6,0-1-.4-1-1v-4c0-.6.4-1,1-1s1,.4,1,1v4c0,.6-.4,1-1,1ZM75.4,15c-.6,0-1-.4-1-1v-4c0-.6.4-1,1-1s1,.4,1,1v4c0,.6-.4,1-1,1ZM86.7,36.3c-.4.4-1,.4-1.4,0l-2.8-2.8c-.4-.4-.4-1,0-1.4.4-.4,1-.4,1.4,0l2.8,2.8c.4.4.4,1,0,1.4ZM68.4,18c-.4.4-1,.4-1.4,0l-2.8-2.8c-.4-.4-.4-1,0-1.4s1-.4,1.4,0l2.8,2.8c.4.4.4,1,0,1.4ZM64.1,36.3c-.4-.4-.4-1,0-1.4l2.8-2.8c.4-.4,1-.4,1.4,0,.4.4.4,1,0,1.4l-2.8,2.8c-.4.4-1,.4-1.4,0ZM82.5,18c-.4-.4-.4-1,0-1.4l2.8-2.8c.4-.4,1-.4,1.4,0s.4,1,0,1.4h0l-2.8,2.8c-.4.4-1,.4-1.4,0h0Z"/>
  <path d="M17,75c0,4.4,3.6,8,8,8s8-3.6,8-8-3.6-8-8-8-8,3.6-8,8ZM41,75c0,.6-.4,1-1,1h-4c-.6,0-1-.4-1-1s.4-1,1-1h4c.6,0,1,.4,1,1ZM15,75c0,.6-.4,1-1,1h-4c-.6,0-1-.4-1-1s.4-1,1-1h4c.6,0,1,.4,1,1ZM25,91c-.6,0-1-.4-1-1v-4c0-.6.4-1,1-1s1,.4,1,1v4c0,.6-.4,1-1,1ZM25,65c-.6,0-1-.4-1-1v-4c0-.6.4-1,1-1s1,.4,1,1v4c0,.6-.4,1-1,1ZM36.3,86.3c-.4.4-1,.4-1.4,0l-2.8-2.8c-.4-.4-.4-1,0-1.4s1-.4,1.4,0l2.8,2.8c.4.4.4,1,0,1.4ZM17.9,68c-.4.4-1,.4-1.4,0l-2.8-2.8c-.4-.4-.4-1,0-1.4s1-.4,1.4,0l2.8,2.8c.4.4.4,1,0,1.4ZM13.7,86.3c-.4-.4-.4-1,0-1.4l2.8-2.8c.4-.4,1-.4,1.4,0s.4,1,0,1.4l-2.8,2.8c-.4.4-1,.4-1.4,0ZM32,68c-.4-.4-.4-1,0-1.4l2.8-2.8c.4-.4,1-.4,1.4,0,.4.4.4,1,0,1.4h0l-2.8,2.8c-.4.4-1,.4-1.4,0h0Z"/>
  <g>
    <path d="M21,9.6c.4.5.5,1.2.2,1.7-1.2,2.1-1.8,4.5-1.8,6.9,0,8,6.6,14.6,14.6,14.6s2.1,0,3.1-.3c.6,0,1.3,0,1.6.6.4.5.4,1.3,0,1.8-3.2,3.9-7.9,6.2-13,6.2-9.2,0-16.7-7.4-16.7-16.6s4.2-12.8,10.2-15.3c.6-.3,1.3,0,1.8.4h0Z"/>
    <path d="M30.6,15.3c0-.2.3-.4.5-.3,0,0,.2.1.3.3l.8,2.3c.3,1,1.2,1.8,2.2,2.2l2.3.8c.2,0,.4.3.3.5,0,.1,0,.2-.3.3l-2.3.8c-1,.3-1.8,1.2-2.2,2.2l-.8,2.3c0,.2-.3.4-.5.3,0,0-.2-.1-.3-.3l-.8-2.3c-.3-1-1.2-1.8-2.2-2.2l-2.3-.8c-.2,0-.4-.3-.3-.5,0-.1,0-.2.3-.3l2.3-.8c1-.3,1.8-1.2,2.2-2.2,0,0,.8-2.3.8-2.3ZM36.7,9.2c0-.2.2-.2.4-.2,0,0,0,0,.2.2l.5,1.5c.2.7.8,1.2,1.5,1.5l1.5.5c.2,0,.2.2.2.4,0,0,0,.1-.2.2l-1.5.5c-.7.2-1.2.8-1.5,1.5l-.5,1.5c0,.2-.2.2-.4.2,0,0,0,0-.2-.2l-.5-1.5c-.2-.7-.8-1.2-1.5-1.5l-1.5-.5c-.2,0-.2-.2-.2-.4,0,0,0-.1.2-.2l1.5-.5c.7-.2,1.2-.8,1.5-1.5l.5-1.5h0Z"/>
  </g>
  <g>
    <path d="M78.4,90.5c-.4-.5-.5-1.2-.2-1.7,1.2-2.1,1.8-4.5,1.8-6.9,0-8-6.6-14.6-14.6-14.6s-2.1,0-3.1.3c-.6,0-1.3,0-1.6-.6-.4-.5-.4-1.3,0-1.8,3.2-3.9,7.9-6.2,13-6.2,9.2,0,16.7,7.4,16.7,16.6s-4.2,12.8-10.2,15.3c-.6.3-1.3,0-1.8-.4Z"/>
    <path d="M68.8,84.7c0,.2-.3.4-.5.3-.1,0-.2,0-.3-.3l-.8-2.3c-.3-1-1.2-1.8-2.2-2.2l-2.3-.8c-.2,0-.4-.3-.3-.5,0,0,0-.2.3-.3l2.3-.8c1-.3,1.8-1.2,2.2-2.2l.8-2.3c0-.2.3-.4.5-.3.1,0,.2,0,.3.3l.8,2.3c.3,1,1.2,1.8,2.2,2.2l2.3.8c.2,0,.4.3.3.5,0,0-.1.2-.3.3l-2.3.8c-1,.3-1.8,1.2-2.2,2.2,0,0-.8,2.3-.8,2.3ZM62.7,90.8c0,.2-.2.2-.4.2,0,0,0,0-.2-.2l-.5-1.5c-.2-.7-.8-1.2-1.5-1.5l-1.5-.5c-.2,0-.2-.2-.2-.4,0,0,0,0,.2-.2l1.5-.5c.7-.2,1.2-.8,1.5-1.5l.5-1.5c0-.2.2-.2.4-.2,0,0,0,0,.2.2l.5,1.5c.2.7.8,1.2,1.5,1.5l1.5.5c.2,0,.2.2.2.4,0,0,0,0-.2.2l-1.5.5c-.7.2-1.2.8-1.5,1.5l-.5,1.5h0Z"/>
  </g>
</svg>